<svg class="size" viewBox="0 0 40 40" xmlns="http://www.w3.org/2000/svg"><path d="M25.53,16.6H23.66A2.19,2.19,0,0,1,24,17.76v6.5A10.83,10.83,0,0,1,9.14,34.31,11.33,11.33,0,0,0,27.8,25.67v-6.8A2.26,2.26,0,0,0,25.53,16.6Z" class="cls-1"></path><g><path d="M7.4,16.6H25.53a2.26,2.26,0,0,1,2.27,2.27v6.8A11.34,11.34,0,0,1,16.47,37h0A11.34,11.34,0,0,1,5.13,25.67v-6.8A2.27,2.27,0,0,1,7.4,16.6Z" class="cls-2"></path><path d="m27.8 18.87h2.27a6.82 6.82 0 0 1 6.8 6.8 6.82 6.82 0 0 1-6.8 6.8h-4.54" class="cls-2"></path><path d="m15.33 23.4v-6.8" class="cls-2"></path><path d="m24.4 3c2.17 4.34-4.4 5.86-1.13 10.2" class="cls-2"></path><path d="m17.6 3c2.17 4.34-4.38 5.86-1.13 10.2" class="cls-2"></path><path d="M10.8,3C13,7.34,6.42,8.86,9.67,13.2" class="cls-2"></path><path d="M11.93,24.16a.76.76,0,0,1,.76-.76H18a.76.76,0,0,1,.75.76v5.28a.76.76,0,0,1-.75.76H12.69a.76.76,0,0,1-.76-.76Z" class="cls-2"></path></g></svg>