<svg class="size" viewBox="0 0 40 40" xmlns="http://www.w3.org/2000/svg"><path transform="translate(60.38 6.79) rotate(90)" d="m23.4 23.38h4.53a2.27 2.27 0 0 1 2.27 2.27v15.87a2.27 2.27 0 0 1-2.27 2.27h-4.53v-20.41z" class="cls-1"></path><g><path d="M10.92,29A13.6,13.6,0,1,1,30.2,16.6" class="cls-2"></path><path d="M8,6.1l8,3a2.26,2.26,0,0,1,1.43,2.57l-.47,2.37a2.26,2.26,0,0,1-1.68,1.75l-3.14.79L10.32,21a4.52,4.52,0,0,1-1.7,2.09L5.86,25" class="cls-2"></path><path d="m26 6.8-2.21 4.42a2.28 2.28 0 0 0-0.1 1.78l0.85 2.51" class="cls-2"></path><path d="M16.6,26.8a2.27,2.27,0,0,1,2.26-2.27H34.73A2.27,2.27,0,0,1,37,26.8v7.93A2.27,2.27,0,0,1,34.73,37H18.86a2.27,2.27,0,0,1-2.26-2.27Z" class="cls-2"></path><path d="M21.13,24.53V37" class="cls-2"></path><path d="M32.46,24.53V37" class="cls-2"></path><path d="M23.4,24.53V23.4a3.4,3.4,0,1,1,6.8,0v1.13" class="cls-2"></path></g></svg>