<svg class="size" viewBox="0 0 40 40" xmlns="http://www.w3.org/2000/svg"><path d="m20 16.6h4.53a2.27 2.27 0 0 1 2.27 2.27v6.13a2.27 2.27 0 0 1-2.27 2.27h-4.53v-10.67z" class="cls-1"></path><g><path d="M5.27,7.79V19.3A18,18,0,0,0,16.8,36.09l1.57.6a4.47,4.47,0,0,0,3.26,0l1.57-.6A18,18,0,0,0,34.73,19.3V7.79a2.24,2.24,0,0,0-1.31-2.06A32.76,32.76,0,0,0,20,3,32.76,32.76,0,0,0,6.58,5.73,2.24,2.24,0,0,0,5.27,7.79Z" class="cls-2"></path><path d="m13.2 18.86a2.27 2.27 0 0 1 2.27-2.26h9.06a2.27 2.27 0 0 1 2.27 2.26v6.8a2.27 2.27 0 0 1-2.27 2.27h-9.06a2.27 2.27 0 0 1-2.27-2.27z" class="cls-2"></path><path d="M20,9.8h0a4.53,4.53,0,0,0-4.53,4.53V16.6h9.06V14.33A4.53,4.53,0,0,0,20,9.8Z" class="cls-2"></path><path d="M20,21.74a.57.57,0,1,1-.57.57.57.57,0,0,1,.57-.57" class="cls-2"></path></g></svg>

