<svg class="svg-image" role="img" style="width:inherit;height:inherit;line-height:inherit;color:inherit;" 
xmlns="http://www.w3.org/2000/svg" viewBox="0 0 200 200">
<path fill="white" fill-rule="evenodd" clip-rule="evenodd"
 d="M161.931 178.926l-15.013-6.13a14.426 14.426 0 00-5.431-1.027h-4.613l-7.068-5.044h-10.415l4.613 5.044H75.572l4.627-5.044H69.784l-7.053 5.044h-4.568a14.493 14.493 0 00-5.49 1.071l-14.998 6.086c-.622.204-.426 1.133.223 1.071h123.825c.638.038.814-.867.208-1.071zM146.339 20.001H54.086c-8.94-.099-16.268 7.068-16.367 16.008v82.195c0 24.653 19.985 44.638 44.638 44.638h35.71c24.653 0 44.638-19.985 44.638-44.638V36.011c-.098-8.94-7.426-16.108-16.366-16.01h0zM68.966 127.132c-6.574 0-11.903-5.329-11.903-11.903h11.903c6.574 0 11.903 5.329 11.903 11.903H68.966zm62.492 0h-11.903c0-6.574 5.329-11.903 11.903-11.903h11.903c.001 6.573-5.328 11.903-11.903 11.903h-.015h.015zm19.336-47.034c0 7.574-7.432 13.704-16.509 13.704H66.109c-9.121 0-16.501-6.13-16.501-13.704v-36.29a8.928 8.928 0 018.928-8.928h17.989c-.753 3.172 1.673 6.368 5.074 6.368h37.198c3.393 0 5.856-3.191 5.059-6.368h18.004c4.931 0 8.935 3.997 8.935 8.928v36.29z"></path>
<path fill="white"  fill-rule="evenodd" clip-rule="evenodd" 
d="M161.931 178.926l-15.013-6.13a14.426 14.426 0 00-5.431-1.027h-4.613l-7.068-5.044h-10.415l4.613 5.044H75.572l4.627-5.044H69.784l-7.053 5.044h-4.568a14.493 14.493 0 00-5.49 1.071l-14.998 6.086c-.622.204-.426 1.133.223 1.071h123.825c.638.038.814-.867.208-1.071zM146.339 20.001H54.086c-8.94-.099-16.268 7.068-16.367 16.008v82.195c0 24.653 19.985 44.638 44.638 44.638h35.71c24.653 0 44.638-19.985 44.638-44.638V36.011c-.098-8.94-7.426-16.108-16.366-16.01h0zM68.966 127.132c-6.574 0-11.903-5.329-11.903-11.903h11.903c6.574 0 11.903 5.329 11.903 11.903H68.966zm62.492 0h-11.903c0-6.574 5.329-11.903 11.903-11.903h11.903c.001 6.573-5.328 11.903-11.903 11.903h-.015h.015zm19.336-47.034c0 7.574-7.432 13.704-16.509 13.704H66.109c-9.121 0-16.501-6.13-16.501-13.704v-36.29a8.928 8.928 0 018.928-8.928h17.989c-.753 3.172 1.673 6.368 5.074 6.368h37.198c3.393 0 5.856-3.191 5.059-6.368h18.004c4.931 0 8.935 3.997 8.935 8.928v36.29z"></path></svg>