<svg width="110" height="49" viewBox="0 0 110 49" fill="none" xmlns="http://www.w3.org/2000/svg">
<path d="M6.152 33.22C5.75333 33.22 5.554 32.9287 5.554 32.346C5.554 32.1007 5.58467 31.748 5.646 31.288C5.738 30.8587 5.79933 30.3527 5.83 29.77C5.89133 28.114 6.25933 25.262 6.934 21.214C7.05667 20.6007 7.17933 19.9873 7.302 19.374C7.45533 18.73 7.60867 18.0707 7.762 17.396L9.326 11.14C9.44867 10.404 9.58667 9.576 9.74 8.656C9.89333 7.736 10.0467 6.70867 10.2 5.574H6.796C6.45867 5.574 6.09067 5.63533 5.692 5.758C5.17067 5.91133 4.80267 5.988 4.588 5.988C4.34267 5.988 4.06667 6.00333 3.76 6.034C3.45333 6.034 3.14667 6.034 2.84 6.034C2.196 6.034 1.61333 5.97267 1.092 5.85C0.601333 5.72733 0.356 5.436 0.356 4.976C0.356 4.056 0.647333 3.596 1.23 3.596C1.69 3.596 2.30333 3.55 3.07 3.458C3.46867 3.42733 3.806 3.412 4.082 3.412C4.38867 3.38133 4.64933 3.366 4.864 3.366L5.922 3.32L7.072 3.274C7.68533 3.24333 8.268 3.24333 8.82 3.274C9.372 3.274 9.90867 3.28933 10.43 3.32L15.674 3.458C15.8273 3.458 16.1033 3.44267 16.502 3.412C16.9313 3.38133 17.468 3.33533 18.112 3.274C19.4 3.182 20.2893 3.136 20.78 3.136C21.148 3.136 21.332 3.42733 21.332 4.01C21.332 4.96067 21.0407 5.436 20.458 5.436C18.6487 5.436 17.33 5.436 16.502 5.436C15.674 5.436 15.3367 5.42067 15.49 5.39C14.8767 5.45133 14.248 5.49733 13.604 5.528C12.9907 5.55867 12.3773 5.574 11.764 5.574C11.6413 6.494 11.488 7.42933 11.304 8.38C11.12 9.3 10.9207 10.2507 10.706 11.232C10.5527 11.9067 10.3533 12.7807 10.108 13.854C9.86267 14.8967 9.58667 16.1387 9.28 17.58C9.06533 18.3467 8.74333 19.6347 8.314 21.444C8.28333 21.7507 8.222 22.1647 8.13 22.686C8.038 23.1767 7.93067 23.7747 7.808 24.48C7.68533 24.94 7.624 25.584 7.624 26.412C7.624 27.1787 7.624 27.8227 7.624 28.344C7.65467 28.8347 7.65467 29.1567 7.624 29.31C7.56267 29.6167 7.486 29.9847 7.394 30.414C7.33267 30.8433 7.256 31.3493 7.164 31.932C7.04133 32.7907 6.704 33.22 6.152 33.22ZM25.7865 30.552C25.6331 30.552 25.4951 30.4907 25.3725 30.368C24.5445 29.5093 24.1151 28.252 24.0845 26.596C24.0845 26.4733 24.0998 26.3353 24.1305 26.182C24.1611 25.998 24.1765 25.7987 24.1765 25.584L24.2225 24.618V24.48C24.2225 23.928 24.0231 23.7287 23.6245 23.882C23.0111 24.3113 22.1831 24.94 21.1405 25.768C20.1285 26.5653 18.9018 27.5467 17.4605 28.712C16.8471 29.2947 16.0651 29.586 15.1145 29.586C14.5625 29.586 14.0871 29.2947 13.6885 28.712C13.3205 28.0987 13.1825 27.516 13.2745 26.964C13.3665 26.1667 13.6885 25.308 14.2405 24.388C14.7925 23.4373 15.4671 22.502 16.2645 21.582C17.0925 20.6313 17.9665 19.8033 18.8865 19.098C19.8371 18.362 20.7418 17.8407 21.6005 17.534C21.9378 17.4113 22.2598 17.3193 22.5665 17.258C22.8731 17.1967 23.1798 17.166 23.4865 17.166C24.8051 17.166 25.4645 17.626 25.4645 18.546C25.4645 18.8527 25.3418 19.006 25.0965 19.006C25.0045 19.006 24.9125 19.006 24.8205 19.006C24.7285 18.9753 24.6365 18.9293 24.5445 18.868C23.9925 18.408 23.4865 18.178 23.0265 18.178C22.5665 18.178 21.8918 18.454 21.0025 19.006C20.2971 19.4353 19.6071 19.972 18.9325 20.616C18.2578 21.26 17.6138 21.9807 17.0005 22.778C16.4178 23.5447 15.9578 24.2347 15.6205 24.848C15.2831 25.4307 15.0838 25.952 15.0225 26.412C14.9918 26.5347 14.9765 26.688 14.9765 26.872C14.9765 27.3627 15.1758 27.608 15.5745 27.608C16.0651 27.608 16.9851 27.1633 18.3345 26.274C21.5545 24.1273 23.7931 22.226 25.0505 20.57C25.3571 20.1713 25.6331 19.6347 25.8785 18.96C26.0318 18.5307 26.3538 18.316 26.8445 18.316C27.3965 18.316 27.6725 18.6227 27.6725 19.236C27.6725 19.7267 27.4425 20.34 26.9825 21.076C26.2465 23.3147 25.8785 24.8633 25.8785 25.722C25.9398 27.0407 26.2618 28.0987 26.8445 28.896C26.9365 28.988 26.9825 29.1107 26.9825 29.264C26.9825 29.54 26.8445 29.816 26.5685 30.092C26.2925 30.3987 26.0318 30.552 25.7865 30.552ZM31.314 33.174C31.038 33.174 30.7467 33.0513 30.44 32.806C30.164 32.5913 30.0413 32.346 30.072 32.07C30.4093 27.5313 31.6053 21.9807 33.66 15.418C34.6413 12.4127 36.0213 8.91667 37.8 4.93C37.892 4.71533 38.0453 4.608 38.26 4.608C38.6587 4.608 38.858 4.82266 38.858 5.252C38.858 5.31333 38.8427 5.37467 38.812 5.436C38.812 5.49733 38.7967 5.55867 38.766 5.62C37.9073 7.21467 36.788 10.5113 35.408 15.51C35.04 16.8593 34.718 18.0707 34.442 19.144C34.166 20.2173 33.936 21.1527 33.752 21.95C36.2053 19.3127 38.5513 17.718 40.79 17.166L41.204 17.12C41.572 17.0587 41.848 17.2273 42.032 17.626C42.2467 17.994 42.308 18.362 42.216 18.73C41.8787 19.8033 41.02 20.9687 39.64 22.226C38.628 23.1153 37.846 23.8053 37.294 24.296C36.742 24.7867 36.4353 25.078 36.374 25.17C36.4353 25.9367 37.4013 27.1633 39.272 28.85C39.3947 28.9727 39.548 29.08 39.732 29.172C39.916 29.2333 40.1153 29.2947 40.33 29.356C40.5447 29.4173 40.7287 29.494 40.882 29.586C41.066 29.6473 41.2193 29.724 41.342 29.816C41.4953 29.9693 41.572 30.1227 41.572 30.276C41.572 30.552 41.4493 30.8127 41.204 31.058C40.9893 31.3033 40.744 31.426 40.468 31.426C40.376 31.426 40.2687 31.3953 40.146 31.334C39.1033 30.598 38.0913 29.7393 37.11 28.758C36.1287 27.746 35.1933 26.6267 34.304 25.4C33.9667 25.4613 33.522 25.6147 32.97 25.86C32.786 27.0867 32.6173 28.2367 32.464 29.31C32.3413 30.3833 32.2187 31.3953 32.096 32.346C32.0653 32.898 31.8047 33.174 31.314 33.174ZM34.396 23.376C34.488 23.376 34.5493 23.3607 34.58 23.33C35.7147 23.33 37.018 22.732 38.49 21.536C39.6553 20.5547 40.238 19.8187 40.238 19.328C40.2073 19.144 40.0693 19.052 39.824 19.052C39.088 19.052 37.3093 20.478 34.488 23.33L34.396 23.376ZM48.4375 30.966C47.0882 30.966 45.9842 30.552 45.1255 29.724C44.2975 28.896 43.8835 27.7767 43.8835 26.366C43.8835 26.0593 43.8988 25.7527 43.9295 25.446C43.9908 25.1393 44.0522 24.8327 44.1135 24.526C44.4508 23.2073 45.3862 21.7967 46.9195 20.294C48.6368 18.6687 50.1242 17.856 51.3815 17.856C52.4242 17.856 52.9148 18.4387 52.8535 19.604C52.8228 21.1067 51.9948 22.5787 50.3695 24.02C49.6642 24.6027 48.9282 25.1393 48.1615 25.63C47.4255 26.1207 46.6435 26.366 45.8155 26.366H45.7695C45.8615 28.3593 46.8888 29.356 48.8515 29.356C49.4955 29.356 50.2162 29.2027 51.0135 28.896C51.0748 28.8653 51.1668 28.85 51.2895 28.85C51.6882 28.85 51.8875 29.0493 51.8875 29.448C51.8875 29.724 51.7495 29.9387 51.4735 30.092C50.6148 30.6747 49.6028 30.966 48.4375 30.966ZM47.0115 24.204C47.9622 23.9893 48.7748 23.5907 49.4495 23.008C50.6455 21.996 51.2435 21.03 51.2435 20.11V20.018C51.2435 19.8033 51.1668 19.6347 51.0135 19.512C50.8602 19.3893 50.7528 19.3587 50.6915 19.42C49.7408 19.42 48.7288 20.11 47.6555 21.49C47.5022 21.7047 47.3182 21.996 47.1035 22.364C46.8888 22.7013 46.6588 23.1153 46.4135 23.606C46.3828 23.6673 46.3675 23.7287 46.3675 23.79C46.3675 24.066 46.5822 24.204 47.0115 24.204Z" fill="black"/>
<path d="M62.2997 31.702C62.0237 31.702 61.8243 31.4107 61.7017 30.828C61.671 30.6133 61.6097 30.3067 61.5177 29.908C61.4563 29.5093 61.3797 29.0033 61.2877 28.39L61.3337 28.344C60.7817 25.4 59.9997 20.984 58.9877 15.096C58.8957 14.4213 58.7577 13.532 58.5737 12.428C58.3897 11.324 58.175 10.0207 57.9297 8.518L57.2397 6.356C57.209 5.988 57.163 5.528 57.1017 4.976C57.0403 4.424 56.9637 3.78 56.8717 3.044H56.7797C56.749 2.952 56.7337 2.814 56.7337 2.63C56.7337 2.23133 56.8257 1.90933 57.0097 1.664C57.2243 1.41867 57.439 1.296 57.6537 1.296C57.9297 1.296 58.1137 1.51067 58.2057 1.94L59.3557 7.644L60.4597 14.314C60.613 15.1113 60.797 16.1847 61.0117 17.534C61.2263 18.8833 61.487 20.5087 61.7937 22.41C61.8857 23.1153 62.0083 23.9127 62.1617 24.802C62.3457 25.6913 62.545 26.6727 62.7597 27.746V28.16C62.9743 27.9147 63.143 27.5467 63.2657 27.056L65.0597 24.158C65.397 23.6367 65.7343 22.9773 66.0717 22.18C66.4397 21.352 66.8383 20.4167 67.2677 19.374C67.421 18.8527 67.6357 18.1933 67.9117 17.396C68.2183 16.5987 68.571 15.648 68.9697 14.544C68.8777 13.9307 68.7397 13.1333 68.5557 12.152C68.4023 11.14 68.203 9.92867 67.9577 8.518L67.2217 6.356L66.7617 2.814C66.731 2.41533 66.8077 2.06267 66.9917 1.756C67.1757 1.44933 67.4057 1.296 67.6817 1.296C67.9577 1.296 68.1417 1.51067 68.2337 1.94C68.4177 2.98267 68.6017 3.99467 68.7857 4.976C69.0003 5.92667 69.1843 6.83133 69.3377 7.69L70.0737 11.784L71.7757 8.38L73.4777 4.93L75.1797 1.526C75.3637 1.09667 75.5937 0.881999 75.8697 0.881999C76.299 0.881999 76.5137 1.21933 76.5137 1.894C76.5137 2.17 76.4523 2.43066 76.3297 2.676L75.1797 5.16C74.965 5.58933 74.6737 6.18733 74.3057 6.954C73.9683 7.69 73.539 8.57933 73.0177 9.622L70.6257 15.096L71.9137 22.41L72.8337 27.746V28.068L73.2937 27.148C73.447 26.8107 73.6617 26.3967 73.9377 25.906C74.2443 25.4153 74.597 24.8327 74.9957 24.158C75.241 23.6673 75.563 23.0233 75.9617 22.226C76.391 21.4287 76.8663 20.4627 77.3877 19.328C77.5717 18.684 77.817 17.8713 78.1237 16.89C78.461 15.878 78.875 14.7127 79.3657 13.394C79.703 12.5967 80.5157 10.9253 81.8037 8.38C82.049 7.92 82.3557 7.322 82.7237 6.586C83.1223 5.85 83.567 4.976 84.0577 3.964L85.2077 1.526C85.3917 1.09667 85.6217 0.881999 85.8977 0.881999C86.327 0.881999 86.5417 1.21933 86.5417 1.894C86.5417 2.17 86.4803 2.43066 86.3577 2.676C86.235 3.01333 86.0663 3.38133 85.8517 3.78C85.6677 4.17866 85.453 4.62333 85.2077 5.114L82.9997 9.622C82.4477 11.002 81.8037 12.5967 81.0677 14.406C80.3317 16.1847 79.5037 18.1627 78.5837 20.34C78.3077 20.984 77.955 21.7353 77.5257 22.594C77.127 23.4527 76.6517 24.4187 76.0997 25.492C75.7623 26.1053 75.333 26.8873 74.8117 27.838C74.2903 28.7887 73.6923 29.8927 73.0177 31.15C72.8337 31.4873 72.619 31.656 72.3737 31.656C72.0363 31.656 71.8217 31.38 71.7297 30.828H71.6837C71.653 30.6133 71.607 30.322 71.5457 29.954C71.4843 29.5553 71.4077 29.08 71.3157 28.528L70.4417 23.146L69.5677 17.902L68.5097 20.34C68.1417 21.1987 67.7583 22.0573 67.3597 22.916C66.961 23.7747 66.547 24.6333 66.1177 25.492C65.3817 26.7187 64.3237 28.6047 62.9437 31.15C62.7597 31.518 62.545 31.702 62.2997 31.702ZM93.0794 30.552C92.9261 30.552 92.7881 30.4907 92.6654 30.368C91.8374 29.5093 91.4081 28.252 91.3774 26.596C91.3774 26.4733 91.3928 26.3353 91.4234 26.182C91.4541 25.998 91.4694 25.7987 91.4694 25.584L91.5154 24.618V24.48C91.5154 23.928 91.3161 23.7287 90.9174 23.882C90.3041 24.3113 89.4761 24.94 88.4334 25.768C87.4214 26.5653 86.1948 27.5467 84.7534 28.712C84.1401 29.2947 83.3581 29.586 82.4074 29.586C81.8554 29.586 81.3801 29.2947 80.9814 28.712C80.6134 28.0987 80.4754 27.516 80.5674 26.964C80.6594 26.1667 80.9814 25.308 81.5334 24.388C82.0854 23.4373 82.7601 22.502 83.5574 21.582C84.3854 20.6313 85.2594 19.8033 86.1794 19.098C87.1301 18.362 88.0348 17.8407 88.8934 17.534C89.2308 17.4113 89.5528 17.3193 89.8594 17.258C90.1661 17.1967 90.4728 17.166 90.7794 17.166C92.0981 17.166 92.7574 17.626 92.7574 18.546C92.7574 18.8527 92.6348 19.006 92.3894 19.006C92.2974 19.006 92.2054 19.006 92.1134 19.006C92.0214 18.9753 91.9294 18.9293 91.8374 18.868C91.2854 18.408 90.7794 18.178 90.3194 18.178C89.8594 18.178 89.1848 18.454 88.2954 19.006C87.5901 19.4353 86.9001 19.972 86.2254 20.616C85.5508 21.26 84.9068 21.9807 84.2934 22.778C83.7108 23.5447 83.2508 24.2347 82.9134 24.848C82.5761 25.4307 82.3768 25.952 82.3154 26.412C82.2848 26.5347 82.2694 26.688 82.2694 26.872C82.2694 27.3627 82.4688 27.608 82.8674 27.608C83.3581 27.608 84.2781 27.1633 85.6274 26.274C88.8474 24.1273 91.0861 22.226 92.3434 20.57C92.6501 20.1713 92.9261 19.6347 93.1714 18.96C93.3248 18.5307 93.6468 18.316 94.1374 18.316C94.6894 18.316 94.9654 18.6227 94.9654 19.236C94.9654 19.7267 94.7354 20.34 94.2754 21.076C93.5394 23.3147 93.1714 24.8633 93.1714 25.722C93.2328 27.0407 93.5548 28.0987 94.1374 28.896C94.2294 28.988 94.2754 29.1107 94.2754 29.264C94.2754 29.54 94.1374 29.816 93.8614 30.092C93.5854 30.3987 93.3248 30.552 93.0794 30.552ZM95.801 48.814C93.8383 48.814 92.857 47.6947 92.857 45.456C92.857 41.6533 96.4603 37.3447 103.667 32.53C103.82 32.4687 104.004 32.3307 104.219 32.116C104.188 31.2267 104.188 30.414 104.219 29.678C104.25 28.942 104.311 28.2827 104.403 27.7C104.158 27.9453 103.897 28.1907 103.621 28.436C103.376 28.6813 103.1 28.9267 102.793 29.172C101.934 29.8467 101.152 30.184 100.447 30.184C98.9136 30.184 98.147 28.7427 98.147 25.86C98.147 22.6707 98.4996 20.2327 99.205 18.546C99.3583 18.27 99.573 18.132 99.849 18.132C100.462 18.132 100.769 18.5153 100.769 19.282C100.769 19.8647 100.631 20.7387 100.355 21.904C99.987 23.4067 99.803 24.5567 99.803 25.354C99.803 27.1327 100.186 28.022 100.953 28.022C101.566 28.022 102.348 27.47 103.299 26.366C103.667 25.9673 104.004 25.5687 104.311 25.17C104.618 24.7713 104.878 24.3727 105.093 23.974L105.599 23.1L106.749 20.708L107.117 19.88C107.27 19.604 107.47 19.466 107.715 19.466C108.175 19.466 108.405 19.6807 108.405 20.11C108.405 20.1713 108.374 20.2633 108.313 20.386L108.221 20.524V20.8C107.7 21.8427 107.24 23.2533 106.841 25.032C106.473 26.8107 106.182 28.9727 105.967 31.518L108.451 30.69C108.88 30.69 109.095 30.9353 109.095 31.426C109.095 31.702 108.957 31.8707 108.681 31.932C108.006 32.1467 107.04 32.4227 105.783 32.76C105.66 33.772 105.538 34.6613 105.415 35.428C105.292 36.1947 105.17 36.8387 105.047 37.36C104.311 40.3653 103.222 42.9107 101.781 44.996C99.9716 47.5413 97.9783 48.814 95.801 48.814ZM95.847 47.526C97.4416 47.526 99.021 46.2993 100.585 43.846C101.26 42.7727 101.812 41.6687 102.241 40.534C102.701 39.3993 103.038 38.2493 103.253 37.084C103.284 36.6853 103.284 36.2407 103.253 35.75C103.13 35.198 102.931 34.922 102.655 34.922C102.532 34.922 102.394 34.968 102.241 35.06L102.149 35.014C96.813 38.6327 94.145 42.1287 94.145 45.502C94.145 46.8513 94.7123 47.526 95.847 47.526Z" fill="#AE4B2A"/>
</svg>
