<svg class="Q57A-illustration" role="img" style="width:inherit;height:inherit;line-height:inherit;color:inherit;" version="1.1" id="Layer_1" xmlns="http://www.w3.org/2000/svg" x="0" y="0" viewBox="0 0 206 196" xml:space="preserve"><style>.email-signup-0{fill:#dae6ee}.email-signup-1{fill:#bacedc}.email-signup-3{fill:#92aabb}.email-signup-6{fill:#51697a}.email-signup-10{fill:#2a3945}.email-signup-14{fill:#0d1319}.email-signup-15{fill:#6d8494}.email-signup-16{fill:#982300}.email-signup-17{fill:#fff}.email-signup-18{fill:#b8ddfd}.email-signup-20{fill:#cf3000}.email-signup-28{fill:#fcbb91}.email-signup-29{fill:#f4aa82}</style> <path class="email-signup-0" d="M57.2 23.1c10.4 7 10.4 18.4.1 25.4L38.6 35.8l18.6-12.7z"></path> <path class="email-signup-1" d="M65 36.4c-.3 5.4-3.9 9.5-7.7 12V56c3.4-2.3 6.7-7.9 7.5-12.7.4-2.3.2-2.2.2-4.6v-2.9.6z"></path> <path style="fill:#893800" d="M57.3 48.5V54L38.6 41.3v-5.5z"></path> <path class="email-signup-3" d="M161.5 145.6c13.7 9.2 24.7 31.6 24.6 50L71.5 118.5c-28.2-20.3-52.8-51-52.8-69.4l142.8 96.5z"></path> <g style="opacity:.21"><linearGradient id="SVGID_1_" gradientUnits="userSpaceOnUse" x1="113.206" y1="212.09" x2="91.603" y2="174.669" gradientTransform="matrix(1 0 0 -1 0 315.747)"><stop offset=".52" style="email-signup-op-color:#f1f4f7;stop-opacity:0"></stop><stop offset=".81" style="email-signup-op-color:#f1f4f7"></stop></linearGradient> <path d="M161.5 145.6c13.7 9.2 24.7 31.6 24.6 50L71.5 118.5c-25.1-17-52.8-51-52.8-69.4l142.8 96.5z" style="fill:url(#SVGID_1_)"></path></g> <ellipse transform="rotate(-67.381 105.12 164.79)" class="email-signup-6" cx="105.1" cy="164.8" rx="9.8" ry="5.2"></ellipse> <path class="email-signup-3" d="M99.1 167.5c.4-3.1 1.5-6 3.3-8.4 1.5-2.1 4.5-4.8 6.9-3.2L98 148.5c-4.4-2.9-8.7-5.8-13.1-8.6-2.8-1.8-5.9 1.2-7.6 3.7-1.3 1.9-2.2 4.1-2.6 6.4-.5 2.4-.6 5.8 1.4 7.4 1.1.9 2.4 1.6 3.6 2.3l7.7 5.1 13.3 8.7.3.2c-1.9-1.2-2.1-4.1-1.9-6.2z"></path> <path class="email-signup-3" d="M62.3 150c-8.9 1.6-18 1.4-26.9.3-8.5-1.1-17.2-3-25-7.2-3.8-2.1-8.1-5-10-9.6 0 3 18.1 38.4 106.3 20.3 6.8-1.4 13.7-2.5 20.5-3.8l18.9-3.4 14.4-2.6 7.1-1.3.3-.1v-11.9L62.3 150z"></path> <ellipse transform="rotate(-67.381 191.297 111.534)" class="email-signup-6" cx="191.3" cy="111.5" rx="9.8" ry="5.2"></ellipse> <path class="email-signup-3" d="M185.3 114.2c.4-3.1 1.5-6 3.3-8.4 1.5-2.1 4.5-4.8 6.9-3.2l-11.3-7.4c-4.4-2.9-8.7-5.8-13.1-8.6-2.8-1.8-5.9 1.2-7.6 3.7-1.3 1.9-2.2 4.1-2.6 6.4-.5 2.4-.6 5.8 1.4 7.4 1.1.9 2.4 1.6 3.6 2.3l7.7 5.1 13.3 8.7.2.2c-1.8-1.2-2-4-1.8-6.2z"></path> <path class="email-signup-1" d="M197.5 50.7c0 .6 0 1.2-.1 1.7v.3c-.1.6-.1 1.1-.2 1.7v.2l-.3 1.5c0 .1-.1.2-.1.4l-.3 1.2c0 .1-.1.2-.1.3-.1.4-.3.8-.4 1.2l-28 71.6v11.9s6.9-12.4 8.4-16.9C198.5 59.2 197.6 50 197.6 50c-.1.2-.1.5-.1.7z"></path> <path class="email-signup-0" d="M182.9 21.8c12.7 8.6 17.5 25.9 13.1 37.3l-28 71.6L62.3 150c-16.7 3-42.3-.1-55-8.7-3.3-2.2-5.7-4.8-6.9-7.8l135.2-24.6 35.8-91.8c4 .7 7.9 2.3 11.5 4.7z"></path> <g style="opacity:.58"><linearGradient id="SVGID_2_" gradientUnits="userSpaceOnUse" x1="86.676" y1="249.772" x2="135.014" y2="166.048" gradientTransform="matrix(1 0 0 -1 0 315.747)"><stop offset="0" style="email-signup-op-color:#fff"></stop><stop offset="1" style="email-signup-op-color:#fff;stop-opacity:0"></stop></linearGradient> <path d="M182.9 21.8c12.7 8.6 17.5 25.9 13.1 37.3l-28 71.6L62.3 150c-16.7 3-42.3-.1-55-8.7-3.3-2.2-5.7-4.8-6.9-7.8l135.2-24.6 35.8-91.8c4 .7 7.9 2.3 11.5 4.7z" style="fill:url(#SVGID_2_)"></path></g> <path class="email-signup-0" d="m18.7 49.1 4.8 3.2L36.3 61 55 73.6l22.1 15 23.4 15.8 22.4 15.1 19.1 12.9 13.6 9.2c1.9 1.3 3.9 2.6 5.8 3.9 5 3.4 9.3 8.2 12.8 13.5 4.8 7.2 8.4 15.4 10.4 24.2.9 4 1.4 8.2 1.5 12.4l19.8-13.5c0-8-1.9-16-4.8-23.1-3.1-7.7-7.3-14.8-12.6-20.5-3.1-3.4-6.6-5.9-10.2-8.3l-11.4-7.7-17.8-12.1-21.9-14.8-23.5-15.9-23-15.6-20-13.5-14.7-10-7.1-4.8-.3-.2"></path> <path class="email-signup-0" d="m18.7 49.1 4.8 3.2L36.3 61 55 73.6l22.1 15 23.4 15.8 22.4 15.1 19.1 12.9 13.6 9.2c1.9 1.3 3.9 2.6 5.8 3.9 5 3.4 9.3 8.2 12.8 13.5 4.8 7.2 8.4 15.4 10.4 24.2.9 4 1.4 8.2 1.5 12.4l19.8-13.5c0-8-1.9-16-4.8-23.1-3.1-7.7-7.3-14.8-12.6-20.5-3.1-3.4-6.6-5.9-10.2-8.3l-11.4-7.7-17.8-12.1-21.9-14.8-23.5-15.9-23-15.6-20-13.5-14.7-10-7.1-4.8-.3-.2"></path> <linearGradient id="SVGID_3_" gradientUnits="userSpaceOnUse" x1="18.718" y1="200.127" x2="205.884" y2="200.127" gradientTransform="matrix(1 0 0 -1 0 315.747)"><stop offset=".6" style="email-signup-op-color:#f1f4f7;stop-opacity:0"></stop> <stop offset=".8" style="email-signup-op-color:#f1f4f7"></stop> <stop offset=".84" style="email-signup-op-color:#f1f4f7;stop-opacity:.79"></stop> <stop offset=".92" style="email-signup-op-color:#f1f4f7;stop-opacity:.37"></stop> <stop offset=".97" style="email-signup-op-color:#f1f4f7;stop-opacity:.1"></stop> <stop offset="1" style="email-signup-op-color:#f1f4f7;stop-opacity:0"></stop></linearGradient> <path d="m18.7 49.1 4.8 3.2L36.3 61 55 73.6l22.1 15 23.4 15.8 22.4 15.1 19.1 12.9 13.6 9.2c1.9 1.3 3.9 2.6 5.8 3.9 5 3.4 9.3 8.2 12.8 13.5 4.8 7.2 8.4 15.4 10.4 24.2.9 4 1.4 8.2 1.5 12.4l19.8-13.5c0-8-1.9-16-4.8-23.1-3.1-7.7-7.3-14.8-12.6-20.5-3.1-3.4-6.6-5.9-10.2-8.3l-11.4-7.7-17.8-12.1-21.9-14.8-23.5-15.9-23-15.6-20-13.5-14.7-10-7.1-4.8-.3-.2" style="fill:url(#SVGID_3_)"></path> <path class="email-signup-6" d="M201.1 159c-1.5-3.8-3.3-7.4-5.4-10.8 0 2.6 2.1 9.8-4 13.6-5.6 3.5-14.5-.3-16.2-.8 1.3 5.5 5.2 11.8 6 11.9 17.3 3.7 20.4-11.8 19.6-13.9z"></path> <path class="email-signup-10" d="m175.5 160.9-7.4-4.8s0 6 3.9 10.6c3 3.5 9.4 6.2 9.4 6.2"></path> <path class="email-signup-1" d="M128.5 138.1c2.4 2.3 3.6 6 3.6 10.9l-3.5.6c-.1.1-1.9-13.2-.1-11.5z"></path> <path class="email-signup-0" d="m18.9 49.2 18.7 12.7c-10.3 7-27 7-37.4 0l18.7-12.7z"></path> <path class="email-signup-1" d="M36.4 62.6c-4.3 2.6-9.2 3.9-14 4.3-4.9.5-9.8 0-14.5-1.5-2.7-.8-5.3-2-7.7-3.6 0 0 8.8 14.3 29.4 11.3 2.8-.4 5.5-2 7.9-3.7v-7.6c-.2.3-.7.6-1.1.8z"></path> <path class="email-signup-3" d="m156.4 156.9-69.1-46.8V95.5l69.1 46.8z"></path> <path class="email-signup-10" d="M156.4 152.1v5l-3.6-2.5.1-5zM147.1 145.5v4.9l-3.6-2.5V143zM137.7 139.2v5l-3.6-2.5v-4.9zM128.3 132.9v5l-3.6-2.5v-4.9zM118.9 126.7v5l-3.6-2.5.1-4.9zM109.6 120.1v4.9l-3.6-2.4v-5zM100.2 113.9v4.9l-3.6-2.5v-4.9zM90.8 107.6v4.9l-3.6-2.5v-4.9z"></path> <path class="email-signup-0" d="M54.3 54.2c0-4.9-1.4-20.4-7.2-30.4C35.5 3.5 11.7 0 11.7 0l13.6 45 21.4 14.5 7.6-5.3z"></path> <path class="email-signup-3" d="M11.7 0c40.8 19.6 35 59.5 35 59.5L25.3 45 11.7 0z"></path> <path class="email-signup-1" d="M62.3 150c-8.9 1.6-18 1.4-26.9.3-8.5-1.1-17.2-3-25-7.2-3.8-2.1-8.1-5-10-9.6 0 3 18.1 38.4 106.3 20.3 6.8-1.4 13.7-2.5 20.5-3.8 6.3-1.1 1.3-12.1 1.3-12.1L62.3 150z"></path> <linearGradient id="SVGID_4_" gradientUnits="userSpaceOnUse" x1="-53.781" y1="-542.308" x2="-53.781" y2="-528.225" gradientTransform="matrix(.87 .5 1 -.58 662.803 -158.849)"><stop offset=".13" style="email-signup-op-color:#51697a;stop-opacity:0"></stop> <stop offset=".9" style="email-signup-op-color:#51697a"></stop></linearGradient> <path style="opacity:.25;fill:url(#SVGID_4_);enable-background:new" d="m81.5 133.4-8.2-13.5 10.2-1.6 6.1 9.6z"></path> <linearGradient id="SVGID_5_" gradientUnits="userSpaceOnUse" x1="-69.088" y1="-508.556" x2="-69.088" y2="-485.414" gradientTransform="matrix(.87 .5 1 -.58 662.803 -158.849)"><stop offset="0" style="email-signup-op-color:#51697a;stop-opacity:0"></stop> <stop offset=".9" style="email-signup-op-color:#2a3945"></stop></linearGradient> <path style="opacity:.49;fill:url(#SVGID_5_);enable-background:new" d="M105.6 108.4 86.2 95.2l19.3-13.6 18.7 13.3z"></path> <linearGradient id="SVGID_6_" gradientUnits="userSpaceOnUse" x1="-85.218" y1="-507.974" x2="-81.578" y2="-494.07" gradientTransform="matrix(.87 .5 1 -.58 662.803 -158.849)"><stop offset="0" style="email-signup-op-color:#51697a;stop-opacity:0"></stop> <stop offset=".9" style="email-signup-op-color:#2a3945"></stop></linearGradient> <path style="opacity:.6;fill:url(#SVGID_6_);enable-background:new" d="M95.2 101.1 72.8 85.7l9-6.2 22.4 15.4z"></path> <path class="email-signup-14" d="M98.6 98.5h1.2c.9 0 1.5.8 1.5 1.8s-.7 1.8-1.5 1.8h-1.2c-.9 0-1.5-.8-1.5-1.8-.1-.9.6-1.8 1.5-1.8zM82.8 81.6h7.1v8.3h-7.1z"></path> <path class="email-signup-15" d="M115.2 87s-5.3-7.6-5.4-22.2c0-3.9 2.1-2.1 2.1-2.1l2.8-.7 2.5 24.1-2 .9z"></path> <path class="email-signup-16" d="M113.5 51.8c.7 3.1 1.7 12.9 1.7 12.9l-6.2 1.8-4.8-19.8c.1 0 7.4-3 9.3 5.1z"></path> <ellipse class="email-signup-14" cx="88.9" cy="85.6" rx="8.8" ry="10.3"></ellipse> <path class="email-signup-10" d="M109 90.2 97.3 88l-8-16.2 21.9 6.9c-3.7 3.6-2.2 11.5-2.2 11.5z"></path> <path class="email-signup-17" d="M91 126.5V126.2c0-.1 0 0 0 0V123.8l-3.3 1.5c0 .1.1.3.1.4 0 .1 0 .3.1.4V127.8c0 .1 0 .2-.1.3 0 .1 0 .2-.1.3 0 .1-.1.2-.1.3v.1c0 .1-.1.2-.1.2 0 .1-.1.1-.1.2l-.1.1-.1.1-.1.1-.1.1-.1.1-.1.1h-.1c-.1 0-.1.1-.2.1l3.2-1.4c.1 0 .1-.1.2-.1h.1l.1-.1.1-.1.1-.1.1-.1.1-.1.1-.1.1-.1c0-.1.1-.1.1-.2V127.2c0-.1 0-.1.1-.2v-.4l.1-.1z"></path> <path class="email-signup-18" d="m85.3 115.6 2.2 9.6c.6 2.7 0 4.9-1.4 5l-3.4-14.4 2.6-.2z"></path> <path class="email-signup-17" d="m85.3 115.6 3.3-1.5 2.2 9.6-3.3 1.5z"></path> <path class="email-signup-18" d="m82.7 115.8 3.3-1.5 2.6-.2-3.3 1.5z"></path> <path class="email-signup-6" d="M110.7 96.9c-.4-.8-1.2-1.8-2.1-1.7-.5.1-1 .3-1.4.5l-2.3 1.1-1.5.7c1.3-.6 2.3 1.1 2.8 2.3.4 1.2.7 3.3-.4 4.2l3.6-1.6-2.6 1.2c-.4.1-.8.3-1.1.6l-3.3 2.9-5.7 4.9c-1.8 1.6-8.9 6.1-8.9 6.1s.8.7 2.7-.4c3.7-2.1 9.8-7.1 11.3-8.3l5.9-5c.9-.9 5-3.8 3-7.5z"></path> <path class="email-signup-6" d="m100.9 89-.1-.1H99.7L95.1 91h.4c.2 0 .3 0 .5.1l.1.1c.1 0 .1.1.2.1l10.3 6.2c.4-.6 3.6 2.6 4.3 2.1.8-.6 0-3.3-1-4.5-1.7-2.4-9-6.1-9-6.1z"></path> <path class="email-signup-6" d="M105.6 99.9c.1-1 .5-1.9 1-2.6l-10.3-6.2c-.1 0-.1-.1-.2-.1l-.1-.1h-.7c-.7.3-1.1 1.2-1.1 2.6 0 1.8.7 3.6 1.9 4.9.2.1.3.3.5.4l8.2 5c.3-1.3.7-2.6.8-3.9z">

</path>
 <linearGradient id="SVGID_7_" gradientUnits="userSpaceOnUse" x1="101.561" y1="221.636" x2="98.188" y2="215.79" gradientTransform="matrix(1 0 0 -1 0 315.747)"
 ><stop offset="0" style="email-signup-op-color:#51697a;stop-opacity:0">
 </stop> <stop offset=".9" style="email-signup-op-color:#2a3945;stop-opacity:.5">
 </stop></linearGradient> 
 <path d="M105.6 99.9c.1-1 .5-1.9 1-2.6l-10.3-6.2c-.1 0-.1-.1-.2-.1l-.1-.1h-.7c-.7.3-1.1 1.2-1.1 2.6 0 1.8.7 3.6 1.9 4.9.2.1.3.3.5.4l8.2 5c.3-1.3.7-2.6.8-3.9z" style="fill:url(#SVGID_7_)"></path> <path class="email-signup-10" d="m91.7 83.4-.2-.1H90.3c-.1 0-.1 0-.2.1L84.3 86h.1c.1 0 .2-.1.4-.1s.4 0 .6.1l.2.1c.1 0 .1.1.2.1l13 7.8c1.3-1.9 3.5-2.8 5.5-2.4.4.1.7.2 1.1.3l-13.7-8.5z">
 </path> <path class="email-signup-14" d="M97.6 97.1c.2-1.2.6-2.4 1.3-3.3l-13-7.8c-.1 0-.1-.1-.2-.1l-.2-.1-.2-.1H84.5c-1 .4-1.5 1.5-1.5 3.3 0 2.3 1 4.8 2.4 6.1.2.2.4.4.6.5l14.9 9s.5.2 0 0c-2.3-1.4-3.7-4.4-3.3-7.5z">
 </path> <path class="email-signup-6" d="M107.2 98.4c.9 1.7 0 4.3-1.4 5.6 0 0-11.9 11.5-16.5 14.2-.7.4-2.8-.4-2.5-1.7C89.5 105.9 105 98 105 98c1-1 1.2-1.4 2.2.4z">
 </path> <ellipse class="email-signup-6" cx="88.3" cy="116.2" rx="1.9" ry="2.2"></ellipse> 
 <path class="email-signup-14" d="m109 90.2-8.3-1.4-5.5-3.2 3.7-2.5 9.5 1.4c-.2 1.9 0 3.9.6 5.7z"></path> 
 <path class="email-signup-10" d="m105.3 91.5-15.3-8-1.1-2.6 19.7 3.4-9.1.4z"></path> 
 <path class="email-signup-20" d="m98.8 68.3 14.5-9.9-8.8 20.8L90 89.1zM90.4 54.1l.1-.1.2-.1H92.5c.1 0 .1 0 .2.1h.1l.2.1.2.1h.1l.2.1.1.1c.1 0 .2.1.2.1l14.5-9.9c-.1 0-.1-.1-.2-.1h-.1l-.1-.1h-.1l-.1-.1h-.1l-.2-.1h-.1l-.2-.1h-.1l-.1-.1h-1.2.3-.7l-.2.1h-.1l-.1.1h-.1c-.1 0-.1.1-.2.1L90 54.4c.1 0 .1-.1.2-.1h.1l.1-.2z">
 </path> <path class="email-signup-16" d="M93.8 54.8c.8.6 1.5 1.3 2.2 2.1 2.7 3.5 4 8.6 2.7 11.5L90 89.1l-9.9-12.6 8.8-20.7c.9-2.2 2.9-2.4 4.9-1z">
 </path> <path class="email-signup-20" d="M113.7 55.9c0-1.7-.3-3.3-.9-4.9-.6-1.6-1.4-3-2.4-4.3-.5-.6-1.1-1.2-1.7-1.7-.1 0-.2-.2-.3-.2l-14.5 9.9c1.5 1.1 2.7 2.5 3.6 4.3 1 1.8 1.6 3.8 1.8 5.9.1 1.2 0 2.3-.4 3.4l14.5-9.9c.2-.8.4-1.6.3-2.5z"></path>
  <path class="email-signup-20" d="m97.5 52.2-3.7 2.6c1.5 1.1 2.7 2.5 3.6 4.3 1 1.8 1.6 3.8 1.8 5.9.1 1.2 0 2.3-.4 3.4l3.7-2.6c.3-2.6-.1-5.3-1-7.7-1.2-3.4-4-5.9-4-5.9zM108.7 44.7l-3.7 2.6c1.5 1.1 2.7 2.5 3.6 4.3 1 1.8 1.6 3.8 1.8 5.9.1 1.2 0 2.3-.4 3.4l3.4-2.3s1.5-3.2-.7-8.3c-1.1-2.2-2.4-4.1-4-5.6z"></path> 
  <path class="email-signup-20" d="m98.8 68.3 3.7-2.5-8.4 20.4-4.1 2.9zM109.6 61l3.7-2.5-8.4 20.4-4.1 2.8z"></path> 
  <path class="email-signup-6" d="m114.9 90.6-6.2-1.1s-1.5-6.9 2.5-10.8l6.8 1.8c1.6.4 1.4 4.3 1.2 5.8-.3 2.1-2.7 4.7-4.3 4.3z"></path> <path class="email-signup-15" d="m90.9 33.5 4.9 21.9-3.2 3.3-4.1-22z"></path> <path class="email-signup-6" d="m92.6 58.7-3.8-2.6-3-22.6 4.4 2.5z"></path> <path class="email-signup-16" d="M92.8 62.9s0-.1.1-.1V61.4c0-.1 0-.2-.1-.3l-1.9-9.3-4.4-1.1 1.8 9.1c.3 1.7 1.6 3.3 2.8 3.7.5.2 1 0 1.4-.4l.3-.2z"></path> <path class="email-signup-20" d="M96.5 57.8s0-.1 0 0v-.6l-1.8-9.5-3.4 4.1 1.9 9.3c0 .1 0 .2.1.3V62.8s0 .1-.1.1v.1l-.1.1 3.4-3.9c0-.1.1-.1.1-.2V58c-.1-.1-.1-.1-.1-.2z"></path> 
  <path class="email-signup-6" d="M90.3 37s-3.1-.3-3.8-1.3c-.8-1.3-1-3.1-.3-4.5l5.6-20.7 2.7 1.1L90.3 37z"></path>
   <ellipse class="email-signup-6" cx="94.1" cy="11.7" rx="2.7" ry="3.2"></ellipse> <ellipse class="email-signup-16" cx="103.5" cy="37.5" rx="6.9" ry="8.1"></ellipse> <ellipse transform="rotate(-36.112 104.541 37.806)" class="email-signup-20" cx="104.5" cy="37.8" rx="11.5" ry="5.2"></ellipse> <path class="email-signup-6" d="m101.3 46.7 6.8.1-.1 4-6.8-.1z"></path> <ellipse class="email-signup-6" cx="104.6" cy="50.8" rx="3.4" ry="4"></ellipse> <path class="email-signup-15" d="M111.4 37.9c-1.3-4.1-5.2-6.2-8.7-4.8l-.1.1c-3.5 1.6-5.3 6.2-4 10.3 1.3 4.2 5.2 6.3 8.8 4.8 3.6-1.5 5.4-6.1 4.1-10.3l-.1-.1z"></path> 
  <path class="email-signup-14" d="M103.2 36.9c-1-.6-1.9-1.4-2.5-2.4-2.9 2.8-3.4 7.9-1 11.3.1.1.2.2.3.4 2-2.5 3.2-5.8 3.2-9.3z"></path> <path class="email-signup-14" d="M102.7 33.1c.3 1.2.5 3.9.5 5.2 0 0 2.4 1.4 4.6 1.1 2-.3 2.5-2.2 2.8-3.4-1.9-2.9-5-4.1-7.9-2.9z"></path> <path class="email-signup-14" d="M102.6 33.2c-.7.3-1.3.7-1.9 1.3.7 1 1.6 1.8 2.5 2.3 0-1.2-.2-2.5-.5-3.7l-.1.1z"></path> 
  <ellipse class="email-signup-15" cx="101.7" cy="43.1" rx="1.1" ry="1.2"></ellipse> <path class="email-signup-14" d="M102.1 37.6h1.1v7h-1.1z"></path> <path class="email-signup-14" d="M103.2 43.7s.5 1.6 1.8 1.8c1.5.2 2.6-1.6 3.7-2 1.4-.5 1.7.2 2.1 0 .6-.3.9-.9.9-1.6 0 0-.1 6.9-4.4 7.9-4.3 1-5.2-5.2-5.2-5.2l1.1-.9z"></path>
   <path class="email-signup-20" d="M102.9 36.4c2.5-1.7 5.2-2.3 7.1-1.7-1.9-2.1-4.7-2.8-7.2-1.8l-.2.1c-3.3 1.5-5.2 5.5-4.5 9.6.7-2.3 2.4-4.6 4.8-6.2z"></path> <path style="fill:#344755" d="m94.1 78.9 14.8-10.1-.5 1.6-14.8 10.1z"></path> <path style="fill:#1d2d37" d="m88.9 80-1.1.7-2.4-16.9.6-1.6.4 1z"></path> <path d="m84.4 73.3 6.8 8.5v.2c-.6 1.5-2 1.7-3.4.7-.5-.4-1-.8-1.4-1.4-1.9-2.3-2.8-5.9-2-7.9v-.1z" style="fill:#364e5d"></path> <path class="email-signup-15" d="m84.4 73.3 3.2-2.2 6.9 8.5-3.2 2.2z"></path> <path class="email-signup-6" d="m91.3 81.8-.1.2c0 .1-.1.2-.2.3 0 .1-.1.2-.1.2l-.1.1c0 .1-.1.1-.1.2l-.1.1-.2.2 3.2-2.2.2-.2.1-.1s.1-.1.1-.2l.1-.1c.1-.1.1-.1.1-.2.1-.1.1-.2.1-.3l.1-.2-3.1 2.2z"></path>
    <linearGradient id="SVGID_8_" gradientUnits="userSpaceOnUse" x1="-16.765" y1="-544.113" x2="-16.765" y2="-531.382" gradientTransform="matrix(.87 .5 1 -.58 662.803 -158.849)"><stop offset="0" style="email-signup-op-color:#51697a;stop-opacity:0"></stop> <stop offset=".9" style="email-signup-op-color:#51697a"></stop></linearGradient> <path style="opacity:.25;fill:url(#SVGID_8_);enable-background:new" d="m110.1 152-10.4-7 10.8-7.5 7.7 9z"></path> <linearGradient id="SVGID_9_" gradientUnits="userSpaceOnUse" x1="129.949" y1="181.397" x2="140.412" y2="191.86" gradientTransform="matrix(1 0 0 -1 0 315.747)">
   <stop offset="0" style="email-signup-op-color:#51697a;stop-opacity:0"></stop> <stop offset=".9" style="email-signup-op-color:#2a3945"></stop></linearGradient> <path style="opacity:.49;fill:url(#SVGID_9_);enable-background:new" d="m134.6 136.6-7.9-5.5 8.9-9.5 8.3 5.8z"></path> <linearGradient id="SVGID_10_" gradientUnits="userSpaceOnUse" x1="-29.044" y1="-501.673" x2="-29.044" y2="-488.793" gradientTransform="matrix(.87 .5 1 -.58 662.803 -158.849)"><stop offset="0" style="email-signup-op-color:#51697a;stop-opacity:0"></stop> <stop offset=".9" style="email-signup-op-color:#2a3945"></stop></linearGradient>
    <path style="opacity:.49;fill:url(#SVGID_10_);enable-background:new" d="m143.6 122.4-13.8-9.4 10.6-7.3 13.9 9.3z"></path> <linearGradient id="SVGID_11_" gradientUnits="userSpaceOnUse" x1="-41.97" y1="-511.515" x2="-37.743" y2="-495.368" gradientTransform="matrix(.87 .5 1 -.58 662.803 -158.849)"><stop offset="0" style="email-signup-op-color:#51697a;stop-opacity:0"></stop> <stop offset=".9" style="email-signup-op-color:#2a3945"></stop></linearGradient> <path style="opacity:.49;fill:url(#SVGID_11_);enable-background:new" d="M131.9 126.1 105.5 108l10.4-7 26.3 18z"></path> 
    <path class="email-signup-17" d="m111 135.6 2.9-2 4.2 6.1-3 2z"></path> <path class="email-signup-18" d="m111 135.6 4.2 6.1c1.5 2.2 2 5.1 1.1 6.6l-6.9-10 1.6-2.7z"></path> <path class="email-signup-17" d="M119.6 144.6c0-.1 0-.1 0 0V142.4c0-.1 0-.1-.1-.2v-.2l-.1-.2-.1-.2s0-.1-.1-.1l-.1-.2v-.2s0-.1-.1-.2l-.1-.1-.1-.2-.1-.1-.1-.1-.1-.1v-.1l-.1-.2-.1-.1-2.9 2c.1.1.2.2.2.4l.1.1.1.2.1.2.1.3v.1c.1.1.1.3.2.4.1.1.1.3.2.4 0 .1.1.3.1.4 0 .1.1.3.1.4 0 .1.1.3.1.4 0 .1 0 .3.1.4v1.6c0 .1 0 .2-.1.3 0 .1-.1.2-.1.3v.1c0 .1-.1.1-.1.2l2.9-2v-.1l.1-.1v-.1c0-.1.1-.1.1-.2v-1z"></path> <path class="email-signup-28" d="m139.5 128.4-23.7 10.8s-1.4-.4-1.8-1.4c-.4-.8-.4-1.7 0-2.4 3.5-3.8 7.5-7 11.8-9.4 8.1-4.2 13.7 2.4 13.7 2.4z"></path>
     <ellipse class="email-signup-10" cx="154.9" cy="108.5" rx="5.2" ry="6.1"></ellipse> <path class="email-signup-10" d="M129.8 99.2c.4 0 .7 0 1.1.2l4.4-5c-.5-.2-1-.2-1.6 0v-.1c-.1 0-.1.1-.2.1l.1-.1c-.1 0-.2.1-.2.1v-.1c-.1.1-.2.1-.3.2v-.1c-.4.3-.7.7-1 1.1L131 97l-2.5 2.8c.4-.4.8-.6 1.3-.6z"></path> <path class="email-signup-10" d="m130.8 99.4 4.4-5 20.3 6.9-4.4 5zM160 107.6c-.1-2.8-2.4-5.5-4.5-6.2l-4.4 5c1.5.6 2.8 1.8 3.6 3.3.7 1.2 1.5 3.5.4 4.8l2.8-3.2c.9-1.2 2.2-2.1 2.1-3.7z"></path> <path class="email-signup-14" d="M151.1 106.3c2 .7 4 3.1 4.5 5.5.5 2.3-.7 3.7-2.7 3l-20.2-6.9c-2-.7-4-3.1-4.4-5.5-.5-2.3.7-3.7 2.7-3l20.1 6.9z"></path> <path class="email-signup-10" d="M121.7 100.7c.6.1 1.2.5 1.6 1.1l5.9-1.5c-.4-.6-1-1-1.6-1.1-.4 0-.8.1-1.1.2l-4.1 1.1-1.2.3c.2-.1.4-.1.5-.1z"></path> 
     <path class="email-signup-10" d="m123.3 101.8 6-1.6 3.8 5 10.3 13.2-6 1.6z"></path> 
     <path class="email-signup-10" d="M145 123.9c.1-2-.5-3.9-1.6-5.5l-5.9 1.5c1 1.4 1.5 3.1 1.6 4.9.1 1.5-.2 4-1.8 4.4l3.5-.9 2-.5c.5-.1 1-.4 1.4-.8.6-.9.8-2 .8-3.1z"></path> <path class="email-signup-14" d="M137.4 119.9c1.4 1.8 2 5.1 1.4 7.3-.6 2.3-2.3 2.7-3.6.9L121.1 110c-1.4-1.8-2-5.1-1.4-7.3.6-2.3 2.3-2.7 3.6-.9l14.1 18.1z"></path> <path class="email-signup-10" d="m152.4 106.4-18.2-3.9 9.2 16.2-17.1-19.3-3.5 1.1-3.3-5.5s4.4-3.1 8.9-3.1c2.4 0 6.3 2.1 6.3 2.1l17.7 12.4z"></path> <path class="email-signup-14" d="m129.1 124.6 2.8 7.1s6.3-2 7-3.3c1.8-3.5-1.5-8.7-1.8-8.3-2.6 3-8 4.5-8 4.5z"></path> <path class="email-signup-14" d="M119.4 94.8s-4.7 3.9-3.3 9.8c1.4 6.3 15.9 19.2 15.9 19.2l-5.6-18c-.1 0-6.9-10.9-7-11z"></path> 
     <path class="email-signup-20" d="m127.7 68.6.2.1.4.3.2.1.4.4.1.1.5.5.1.1.4.4.2.2c.1.1.2.3.3.4l.1.2c.2.2.3.4.5.6l11.7-7.9-.4-.5-.1-.1-.1-.2-.2-.2-.2-.2-.2-.2-.1-.1-.3-.3-.1-.1-.4-.4-.1-.1-.3-.3-.1-.1-.2-.1-.2-.2-.2-.1-.2-.1-.1-.1-.3-.2-.1-.1c-.1-.1-.3-.2-.4-.3l-.1-.1c-.1-.1-.2-.1-.3-.2l-.1-.1-.2-.1-.1-.1-.2-.1-.2-.1h-.1l-.3-.1h-.1l-.4-.2h-.1l-.3-.1h-.1l-.2-.1-.2-.1h-.7.2-1.3c-.2 0-.3 0-.5.1-.1 0-.2.1-.4.1h-.1l-.3.1c-.1 0-.2.1-.3.1s-.1 0-.1.1c-.1.1-.2.1-.4.2l-11.7 7.9c.1-.1.2-.2.4-.2 0 0 .1 0 .1-.1s.2-.1.3-.1l.3-.1h.1c.1 0 .2-.1.4-.1s.3-.1.5-.1H123.7l.2.1h.2l.3.1h.2l.3.1h.1c.1.1.3.1.4.2h.1l.4.2.1.1.3.2.2.1c.1.1.3.2.4.3.1.1.4.2.5.4l.1.1c-.1-.1.1 0 .2.1z"></path> 
     <path class="email-signup-16" d="M126.7 67.9c1.6 1.1 3 2.5 4.2 4.1L121 92.6l-8.6-11.5 5.7-11.8c1.6-3.5 5.1-3.9 8.6-1.4z"></path> 
     <path class="email-signup-16" d="m130.9 72 11.7-8-10 20.6-11.7 8z"></path> <path class="email-signup-28" d="M175.6 88.3c-.4-.4-1.5-2.4-1.5-2.4s-9.1-1.4-19.3-10.5c-2.7-2.4-.9-2.5-.9-2.5l1.3-3.1L180.6 87l-.5 1c-1 1.9-3.1 1.6-4.5.3z"></path> <path class="email-signup-17" d="M147.5 64.8c2.5 1.2 9.8 6.3 9.8 6.3l-3.9 6-13.4-7.2c.1 0 .8-8.2 7.5-5.1z"></path>
      <path class="email-signup-28" d="m183 88.8-2.5-1.7c-.4.8-.2 1.9.5 2.3.7.5 1.6.2 2-.6z"></path>
       <path class="email-signup-17" d="m136.2 86.7 14.2-9.6-10.8 17.2-14.1 9.6z"></path> 
       <path class="email-signup-18" d="M132.1 74c2.9 2.2 4.7 5.9 4.8 9.9 0 1-.2 1.9-.7 2.8-.6.9-1.1 1.9-1.7 2.8l-3.4 5.7-3.4 5.6c-.1.2-2 2.9-2.2 3.1l-8.4-12.2c.8-1.3 3.4-5 4.1-6.3l2.4-3.9 2.4-3.9 1.2-1.9.6-1c.2-.3.3-.5.6-.7 1-1 2.3-.7 3.4-.1 0 0 .1 0 .3.1z"></path>
      <path class="email-signup-17" d="M151 74.5c0-1.2-.1-2.4-.5-3.5-.3-1.1-.7-2.1-1.3-3-.9-1.7-2.2-3.2-3.7-4-.8-.5-1.8-.5-2.6-.1-.4.2-.9.6-1.3.9s-.9.6-1.4.9l-5.5 3.7-5.5 3.8-.7.4c.9-.6 2-.4 2.9.1.9.5 1.8 1.3 2.5 2.2.7.9 1.4 2 1.8 3.1.5 1.2.9 2.4 1 3.7.2 1.2.1 2.5-.4 3.6-.1.1-.1.3-.2.4l3.2-2.2 3.2-2.2 3.2-2.2 3.2-2.2.8-.5c.2-.1.4-.3.6-.5.3-.6.4-1.2.5-1.8.2-.2.2-.4.2-.6z"></path> 
     <path class="email-signup-20" d="M140.2 71.8c-.6-.9-1.4-1.7-2.2-2.3-1.1-.7-2.1-.9-2.9-.5h-.1l-1.7 1.2-.9.6.1-.1.1-.1c.1 0 .2-.1.3-.1.3-.1.6-.1.8 0 .4.1.7.2 1 .3.2.1.4.2.6.4l.1.1c.4.3.9.7 1.2 1.1l.1.1c.2.2.4.5.6.7l.2.2v.1l.1.1.1.2.1.1.2.3c.4.7.8 1.5 1 2.3v.1c0 .1.1.2.1.3v.1c0 .1.1.2.1.3.2.6.3 1.1.3 1.7.1.9.1 1.8-.2 2.7l-.1.2v.2l-.1.1c-.1.1-.1.2-.2.4l.2-.1-.2.1-6.4 10.6-1.7 2.8 2.5-1.7.1-.1 8.1-13.4v-.1l-.9.6.9-.6c1.5-1.8.7-5.8-1.3-8.9z"></path> <path class="email-signup-20" d="M147.7 66.9c-.6-.9-1.4-1.7-2.2-2.3-1.1-.7-2.1-.9-2.9-.5h-.1l-1.7 1.2-.9.6.1-.1.1-.1c.1 0 .2-.1.3-.1.3-.1.6-.1.8 0 .4 0 .7.2 1.1.3.2.1.4.2.6.4l.1.1c.4.3.9.7 1.2 1.1l.1.1c.2.2.4.5.6.7l.2.2v.1l.1.1.1.2.1.1.2.3c.4.7.8 1.5 1 2.3v.1c0 .1.1.2.1.3v.1c0 .1.1.2.1.3.2.6.3 1.1.3 1.7.1.9.1 1.8-.2 2.7l-.1.2v.2l-.1.1c-.1.1-.1.2-.2.4l.2-.1-.2.1-6.4 10.6-1.7 2.8 2.5-1.7.1-.1s7.8-13.2 8.2-13.4c1.3-2 .5-6-1.5-9z"></path> 
     <path class="email-signup-16" d="m132.4 92.6-10.9-5-1.7-.6 1.5-2.8 2.1.9 10.8 4.8z"></path> <path class="email-signup-20" d="m148.4 80.2-14.2 9.7-1.8 2.8 14.5-10z"></path> 
     <path class="email-signup-17" d="m146.8 82.8-14.3 9.7-3.2 5.6 13.8-9.6z"></path> <path class="email-signup-14" d="M139.1 56.8s-2.1-1.8-4.1-.9c-2 1-7.6 3.4-8.8-1.7-.6-2.7-.7-4.9-4.1-4.2-3.4.7-4.4-7.4-.1-8.3 4.1-.8 6.2 1.8 7.3 4.8 1.5 4.5 6.2 2.3 8 3.5 1.9 1.2 3.7 6 3.7 6"></path> <path class="email-signup-29" d="m140.3 65.2 4.9 3.9-2.7 4.8-5-3.9z"></path> 
     <ellipse class="email-signup-29" cx="142.7" cy="69.2" rx="3" ry="3.5"></ellipse> <ellipse transform="matrix(.00881 -1 1 .00881 84.688 204.223)" class="email-signup-28" cx="145.4" cy="59.4" rx="9" ry="6.2"></ellipse> <path class="email-signup-14" d="m139.5 62.9 3.3-6.7 2.2 1.5-4 8.2-.8-1.2c-.7-1.2-.7-1.8-.7-1.8z"></path> <path class="email-signup-16" d="M151.3 54.7c-2.1-4.2-6.4-5.8-9.7-3.6-3.3 2.2-4.2 7.4-2.2 11.7l.1.1 11.9-8.1-.1-.1z"></path> 
     <path class="email-signup-20" d="M155.7 57.8c-5.4-2.3-7.4 5.2-7.4 5.2l-4.5-3.2s3.9-7 7.4-5.2l4.5 3.2z"></path> <ellipse class="email-signup-28" cx="143.2" cy="60.7" rx="1" ry="1.2"></ellipse> <path class="email-signup-28" d="m114.6 92.3 15.8-18.9 5 6.2-20 19.8-.9-1.2c-1.7-2.5-1.2-4.7.1-5.9z"></path> <path class="email-signup-28" d="m129.8 81.4 1.6 2.1-13.3 13.3z"></path> <path class="email-signup-17" d="m127.4 88.1-5.4-7 7.5-8.2s3.3-2.4 5.9 2.1c1.5 2.6-.8 5.4-.8 5.4l-7.2 7.7z"></path> <path class="email-signup-17" d="m125.7 85.8-3.9-4.9 7.6-8.2s3-1.8 4.9.9c1.2 1.6-1.4 4.6-1.4 4.6l-7.2 7.6z"></path> <path class="email-signup-28" d="m120.3 110.2 2.6 1.8c-.4.9-1.3 1.2-2.1.7-.7-.5-1-1.6-.6-2.4.1 0 .1 0 .1-.1z"></path> <path class="email-signup-28" d="m118.3 114.4-4.6-17.8 4.7-1.8.2 1 1.9 15.6 3.1 5.1-1.3.4c-2.2.6-3.6-.8-4-2.5z"></path>
     </svg>